Coordinates
version=1
nRows=14
nColumns=36
inDegrees=yes

Units are S.I. units (second, meters, Newtons, ...)
If the header above contains a line with 'inDegrees', this indicates whether rotational values are in degrees (yes) or radians (no).

endheader
time	pelvis_tilt	pelvis_list	pelvis_rotation	pelvis_tx	pelvis_ty	pelvis_tz	hip_flexion_r	hip_adduction_r	hip_rotation_r	knee_angle_r	knee_angle_r_beta	ankle_angle_r	subtalar_angle_r	mtp_angle_r	hip_flexion_l	hip_adduction_l	hip_rotation_l	knee_angle_l	knee_angle_l_beta	ankle_angle_l	subtalar_angle_l	mtp_angle_l	lumbar_extension	lumbar_bending	lumbar_rotation	arm_flex_r	arm_add_r	arm_rot_r	elbow_flex_r	pro_sup_r	arm_flex_l	arm_add_l	arm_rot_l	elbow_flex_l	pro_sup_l
      1.64583330	     -2.85149351	      0.07824866	     -1.93256536	     -1.06061181	      1.29754568	     -0.08044173	      7.98873125	      0.03909934	      2.00568626	     13.96935932	      0.24381131	     11.56823787	    -14.14851545	     -7.49999987	      2.91361043	     -1.27086515	      1.69862577	      5.83133350	      0.10177597	      7.68675177	    -15.25919102	     -7.49999987	    -13.18136026	      1.59447533	      1.13807552	     -2.19670025	     -7.22227055	     -5.46518115	     31.08487765	     81.36611037	      2.02694760	     -8.99382149	     20.30716277	     28.20476270	     84.28224239
      1.65000000	     -2.88889053	      0.10609928	     -1.86203217	     -1.06007363	      1.29833776	     -0.08036227	      7.91450143	      0.06971038	      2.01387560	     13.84365036	      0.24161728	     11.51024056	    -14.26835867	     -7.49999987	      2.84371831	     -1.25867278	      1.79102506	      5.60914195	      0.09789800	      7.58662409	    -15.01715250	     -7.49999987	    -13.16621314	      1.52409036	      1.13212552	     -2.25449335	     -7.22614383	     -5.41319384	     31.18144498	     81.05476673	      2.00666309	     -9.01596173	     20.24036971	     28.28978840	     83.89586299
      1.65416670	     -2.90058913	      0.14171799	     -1.70893070	     -1.06085295	      1.30150763	     -0.08093961	      7.86436369	      0.06174177	      2.03003007	     13.82545563	      0.24129972	     11.55274214	    -14.32272333	     -7.49999987	      2.74275333	     -1.20338954	      1.97095031	      5.37669043	      0.09384095	      7.29527026	    -14.93328219	     -7.49999987	    -13.19383632	      1.49000331	      1.05105115	     -2.18139344	     -7.21271965	     -5.29581281	     31.11676018	     80.53972392	      2.03779963	     -8.98190987	     20.18317596	     28.21920703	     83.27854916
      1.65833330	     -3.05027935	      0.17041629	     -1.62703845	     -1.06002150	      1.29842322	     -0.08045563	      7.91719036	      0.08405635	      2.03071930	     13.68518697	      0.23885157	     11.33305699	    -14.63787369	     -7.49999987	      2.75968334	     -1.17521061	      2.22105190	      5.09703515	      0.08896005	      7.11040046	    -14.99133534	     -7.49999987	    -12.98556204	      1.45151308	      0.93441328	     -2.05373018	     -7.21829631	     -4.83166515	     30.77326599	     80.39142434	      2.04489867	     -8.95660685	     20.22507065	     27.97191811	     83.17121609
      1.66250000	     -3.13869190	      0.22818951	     -1.59100673	     -1.06030765	      1.29825725	     -0.08060868	      8.09737926	      0.06207421	      2.12335070	     13.72570356	      0.23955872	     11.34350314	    -14.71679057	     -7.49999987	      2.72817505	     -1.12018044	      2.20292350	      4.85850599	      0.08479693	      6.91329469	    -14.84285205	     -7.49999987	    -12.89414456	      1.37086114	      0.95576290	     -2.06336086	     -7.16361021	     -4.90615783	     30.76710283	     80.06947083	      2.02981312	     -8.94283531	     20.11508841	     27.98409189	     82.83336272
      1.66666670	     -3.28570663	      0.25453012	     -1.55476048	     -1.05980001	      1.29854550	     -0.08050321	      8.22312357	      0.07735153	      2.22093322	     13.58590032	      0.23711869	     11.38706648	    -14.70631081	     -7.49999987	      2.80993775	     -1.11757069	      2.16877871	      4.67459064	      0.08158700	      6.92761068	    -14.59818984	     -7.49999987	    -12.66288473	      1.35714847	      0.93907992	     -2.14747349	     -6.94229281	     -6.15030049	     30.64652091	     84.05785456	      1.99325747	     -8.85039619	     19.13806942	     27.77046951	     86.96962385
      1.67083330	     -3.34481387	      0.24880181	     -1.50391018	     -1.06020409	      1.29843418	     -0.08073157	      8.22735708	      0.09580472	      2.17114912	     13.46035728	      0.23492755	     11.44563733	    -14.81175911	     -7.49999987	      2.79752434	     -1.15022784	      2.11068027	      4.47575031	      0.07811658	      6.89274972	    -14.43545143	     -7.49999987	    -12.60549359	      1.40267814	      0.88040160	     -2.17864739	     -6.87599522	     -6.21634776	     30.70547010	     83.18401476	      1.93540340	     -8.83777169	     19.01236098	     27.83622581	     86.04558782
      1.67500000	     -3.65466164	      0.33835452	     -1.48987011	     -1.05948586	      1.29844486	     -0.08047703	      8.53301861	     -0.02959098	      2.09629573	     13.50335148	      0.23567794	     11.61063761	    -14.78741079	     -7.49999987	      2.98368569	     -1.07458939	      2.02962034	      4.17928795	      0.07294234	      6.81251305	    -14.18391063	     -7.49999987	    -12.13799562	      1.35461007	      0.82863171	     -2.62668906	     -6.81698855	     -6.18823427	     31.14829410	     82.54815876	      1.62744454	     -8.93004023	     18.97306195	     28.31664910	     85.37865456
      1.67916670	     -3.42795773	      0.31066423	     -1.43983296	     -1.06024508	      1.29853945	     -0.08050141	      8.02716517	     -0.04040383	      1.98448603	     13.07512302	      0.22820395	     11.53293751	    -14.77179033	     -7.49999987	      2.62800460	     -1.08434305	      2.10964097	      3.95886470	      0.06909522	      6.66525620	    -14.29257083	     -7.49999987	    -12.41429471	      1.40777002	      0.80208709	     -2.39970628	     -6.80116593	     -6.03123216	     30.50928143	     81.98696237	      1.85365795	     -8.82918366	     18.99349427	     27.79760542	     84.78309777
      1.68333330	     -3.50476388	      0.23942507	     -1.48371393	     -1.05992075	      1.30200655	     -0.08068116	      7.95042865	     -0.02934311	      1.84801336	     12.81897339	      0.22373329	     11.51248934	    -14.53183302	     -7.49999987	      2.68425222	     -1.18405027	      2.03334712	      3.95643088	      0.06905275	      6.61254477	    -14.28706866	     -7.49999987	    -12.23595312	      1.49873165	      0.81002998	     -2.35629781	     -6.91756887	     -5.93567958	     30.31072963	     84.32394022	      1.88475419	     -8.74867870	     18.84894191	     27.53071011	     87.08871965
      1.68750000	     -3.57067353	      0.17913414	     -1.57706711	     -1.06029806	      1.30146858	     -0.08062329	      7.86367417	      0.02566446	      1.80577091	     12.49319133	      0.21804732	     11.41606463	    -14.14674316	     -7.49999987	      2.67997227	     -1.25868070	      1.81019189	      3.82944950	      0.06683650	      6.76370755	    -13.91352786	     -7.49999987	    -12.23712753	      1.63652789	      0.85060444	     -2.22830579	     -7.00264193	     -5.63747479	     30.27758365	     81.91340704	      1.83148285	     -8.70460491	     18.99740102	     27.59402226	     84.52749216
      1.69166670	     -3.56026020	      0.10805058	     -1.55208793	     -1.05967765	      1.30179257	     -0.08058681	      7.63482341	      0.09602750	      1.76318630	     12.08162574	      0.21086415	     11.26441751	    -13.88222715	     -7.49999987	      2.64547152	     -1.35473120	      1.79073791	      3.78524719	      0.06606503	      6.70733709	    -13.95046795	     -7.49999987	    -12.26778713	      1.74797915	      0.90218317	     -2.07598956	     -6.99748644	     -5.44363432	     30.28573368	     81.25576392	      1.86110734	     -8.70514953	     19.13149930	     27.60194903	     83.85098601
      1.69583330	     -3.60619263	      0.05135823	     -1.55547154	     -1.06022581	      1.30136195	     -0.08073096	      7.54048095	      0.14721691	      1.63301558	     11.78472800	      0.20568231	     11.20900387	    -13.41760790	     -7.49999987	      2.67924419	     -1.43150102	      1.64590288	      3.72366360	      0.06499019	      6.76713958	    -13.69650248	     -7.49999987	    -12.25635160	      1.86736954	      0.91333481	     -2.02545628	     -7.07571667	     -5.27963258	     30.29674455	     80.60423201	      1.85405257	     -8.70824932	     19.31450846	     27.65538735	     83.17672256
      1.70000000	     -3.70725059	      0.02429566	     -1.58336557	     -1.05943698	      1.29821296	     -0.08021099	      7.59357299	      0.15124908	      1.39955481	     11.70935552	      0.20436681	     11.51499018	    -12.81473803	     -7.49999987	      2.67059248	     -1.43947342	      1.54357584	      3.55229057	      0.06199917	      6.82297891	    -13.57552422	     -7.49999987	    -12.16543720	      1.95754867	      0.90952252	     -1.85683889	     -7.23536807	     -4.51205324	     29.97368000	     80.93531087	      1.90118329	     -8.82261985	     20.11887493	     27.48680865	     83.65134891
